<?xml version="1.0" standalone="no"?>
<!DOCTYPE svg PUBLIC "-//W3C//DTD SVG 20010904//EN"
 "http://www.w3.org/TR/2001/REC-SVG-20010904/DTD/svg10.dtd">
<svg version="1.0" xmlns="http://www.w3.org/2000/svg"
 width="512.000000pt" height="512.000000pt" viewBox="0 0 512.000000 512.000000"
 preserveAspectRatio="xMidYMid meet">

<g transform="translate(0.000000,512.000000) scale(0.100000,-0.100000)"
fill="#000000" stroke="none">
<path d="M2500 4822 c-76 -107 -316 -344 -427 -422 -266 -187 -559 -303 -856
-340 -116 -15 -441 -8 -534 11 -35 7 -66 9 -70 5 -5 -4 -8 -164 -8 -354 0
-278 4 -375 18 -487 92 -704 318 -1323 685 -1875 251 -378 590 -727 924 -951
97 -66 306 -189 320 -189 4 0 8 72 8 159 l0 159 -37 23 c-199 119 -370 254
-548 433 -557 558 -933 1336 -1054 2181 -21 146 -41 398 -41 514 l0 68 167 6
c239 9 408 39 612 107 306 103 576 268 829 507 l72 68 0 228 c0 125 -1 227 -2
226 -2 0 -28 -35 -58 -77z"/>
<path d="M2515 4014 c-79 -70 -313 -218 -465 -293 -239 -119 -519 -204 -768
-233 -59 -7 -102 -16 -102 -22 0 -6 7 -70 15 -141 21 -182 50 -332 101 -534
24 -96 44 -176 44 -178 0 -9 32 1 133 41 229 91 463 149 737 182 176 21 554
24 715 6 284 -33 550 -99 802 -200 l51 -21 31 113 c56 203 105 471 125 681 l5
61 -98 11 c-327 40 -672 160 -966 338 -110 67 -272 182 -295 210 -17 20 -19
19 -65 -21z"/>
</g>
</svg>
